# AST/ASF file generated using VICON BodyLanguage
# -----------------------------------------------
:version 1.10
:name VICON
:units
  mass 1.0
  length 0.45
  angle deg
:documentation
   .ast/.asf automatically generated from VICON data using
   VICON BodyBuilder and BodyLanguage model FoxedUp or BRILLIANT.MOD
:root
   order TX TY TZ RX RY RZ
   axis XYZ
   position 0 0 0  
   orientation 0 0 0 
:bonedata
  begin
     id 1 
     name lhipjoint
     direction 0.63403 -0.759788 0.143974 
     length 2.51904 
     axis 0 0 0  XYZ
  end
  begin
     id 2 
     name lfemur
     direction 0.34202 -0.939693 0  
     length 7.42313  
     axis 0 0 20  XYZ
    dof rx ry rz
    limits (-160.0 20.0)
           (-70.0 70.0)
           (-60.0 70.0)
  end
  begin
     id 3 
     name ltibia
     direction 0.34202 -0.939693 0   
     length 8.10141   
     axis 0 0 20   XYZ
    dof rx
    limits (-10.0 170.0)
  end
  begin
     id 4 
     name lfoot
     direction 0.0927455 -0.254816 0.962532   
     length 2.14078   
     axis -90 7.62852e-016 20   XYZ
    dof rx rz
    limits (-45.0 90.0)
           (-70.0 20.0)
  end
  begin
     id 5 
     name ltoes
     direction 1.53556e-011 -4.21949e-011 1   
     length 1.07182   
     axis -90 7.62852e-016 20   XYZ
    dof rx
    limits (-90.0 20.0)
  end
  begin
     id 6 
     name rhipjoint
     direction -0.659892 -0.738223 0.139888   
     length 2.59263  
     axis 0 0 0  XYZ 
  end
  begin
     id 7 
     name rfemur
     direction -0.34202 -0.939693 0   
     length 7.58575   
     axis 0 0 -20   XYZ
    dof rx ry rz
    limits (-160.0 20.0)
           (-70.0 70.0)
           (-70.0 60.0)
  end
  begin
     id 8 
     name rtibia
     direction -0.34202 -0.939693 0   
     length 8.19358   
     axis 0 0 -20   XYZ
    dof rx
    limits (-10.0 170.0)
 end
 begin
     id 9 
     name rfoot
     direction -0.0856543 -0.235333 0.968133   
     length 2.13415  
     axis -90 -7.62852e-016 -20   XYZ
    dof rx rz
    limits (-45.0 90.0)
           (-20.0 70.0)
  end
  begin
     id 10 
     name rtoes
     direction -1.53551e-011 -4.21811e-011 1   
     length 1.07055   
     axis -90 -7.62852e-016 -20   XYZ
    dof rx
    limits (-90.0 20.0)
  end
  begin
     id 11 
     name lowerback
     direction 0.025219 0.998394 -0.0507326   
     length 1.91844   
     axis 0 0 0   XYZ
    dof rx ry rz
    limits (-20.0 45.0)
           (-30.0 30.0)
           (-30.0 30.0)
  end
  begin
     id 12 
     name upperback
     direction 0.0213103 0.99967 -0.0143101   
     length 1.92246   
     axis 0 0 0   XYZ
    dof rx ry rz
    limits (-20.0 45.0)
           (-30.0 30.0)
           (-30.0 30.0)
  end
  begin
     id 13 
     name thorax
     direction 0.00920974 0.99991 0.00971518   
     length 1.92239   
     axis 0 0 0   XYZ
    dof rx ry rz
    limits (-20.0 45.0)
           (-30.0 30.0)
           (-30.0 30.0)
  end
  begin
     id 14 
     name lowerneck
     direction 0.0598257 0.997249 0.0437612   
     length 3.13679   
     axis 0 0 0   XYZ
    dof rx ry rz
    limits (-20.0 45.0)
           (-30.0 30.0)
           (-30.0 30.0)
  end
  begin
     id 15 
     name upperneck
     direction -0.035342 0.999338 0.00863891   
     length 3.16283   
     axis 0 0 0   XYZ
    dof rx ry rz
    limits (-20.0 45.0)
           (-30.0 30.0)
           (-30.0 30.0)
  end
  begin
     id 16
     name head
     direction 0.37144 0.811566 0.450991  
     length 1.2838  
     axis 0 0 0   XYZ
    dof rx ry rz
    limits (-20.0 45.0)
           (-30.0 30.0)
           (-30.0 30.0)
  end
  begin
     id 17 
     name lclavicle
     direction 0.961094 0.274654 -0.0293862  
     length 3.63466  
     axis 0 0 0   XYZ
    dof ry rz
    limits (-20.0 10.0)
           (0.0 20.0)
  end
  begin
     id 18 
     name lhumerus
     direction 1 -4.48963e-011 1.10303e-027   
     length 5.12842   
     axis 180 -30 -90   XYZ
    dof rx ry rz
    limits (-60.0 90.0)
           (-90.0 90.0)
           (-90.0 90.0)
  end
  begin
     id 19
     name lradius
     direction 1 -4.48968e-011 4.13199e-027   
     length 3.47396   
     axis 180 -30 -90   XYZ
    dof rx
    limits (-10.0 170.0)
  end
  begin
     id 20
     name lwrist
     direction 1 -4.48948e-011 9.12708e-027   
     length 1.73698   
     axis -6.84618e-015 90 90   XYZ
    dof ry
    limits (-180.0 0.0)
 end
  begin
     id 21 
     name lhand
     direction 1 -4.49057e-011 1.82749e-026   
     length 0.728607   
     axis -1.16502e-014 90 90   XYZ
    dof rx rz
    limits (-90.0 90.0)
           (-45.0 45.0)
  end
  begin
     id 22 
     name lfingers
     direction 1 -4.48912e-011 3.64949e-026   
     length 0.587422   
     axis -2.33008e-014 90 90   XYZ
    dof rx
    limits (0.0 90.0)
  end
  begin
     id 23
     name lthumb
     direction 0.707107 -6.34995e-011 0.707107   
     length 0.843424   
     axis -90 45 5.69224e-014   XYZ
    dof rx rz
    limits (-45.0 45.0)
           (-45.0 45.0)
  end
  begin
     id 24 
     name rclavicle
     direction -0.90514 0.421881 -0.0523369   
     length 3.57139  
     axis 0 0 0   XYZ 
    dof ry rz
    limits (-10.0 20.0)
           (-20.0 0.0)
  end
  begin
     id 25 
     name rhumerus
     direction -1 -4.48954e-011 -1.76662e-027  
     length 5.48477   
     axis 180 30 90   XYZ
    dof rx ry rz
    limits (-90.0 60.0)
           (-90.0 90.0)
           (-90.0 90.0)
  end
  begin
     id 26 
     name rradius
     direction -1 -4.48982e-011 1.26841e-027   
     length 3.47856   
     axis 180 30 90   XYZ
    dof rx
    limits (-10.0 170.0)
  end
  begin
     id 27 
     name rwrist
     direction -1 -4.49037e-011 9.13554e-027   
     length 1.73928   
     axis -6.84618e-015 -90 -90   XYZ
    dof ry
    limits (-180.0 0.0)
  end
  begin
     id 28
     name rhand
     direction -1 -4.48871e-011 1.82397e-026   
     length 0.709974   
     axis -1.16502e-014 -90 -90   XYZ
    dof rx rz
    limits (-90.0 90.0)
           (-45.0 45.0)
  end
  begin
     id 29
     name rfingers
     direction -1 -4.48994e-011 3.65258e-026   
     length 0.572399   
     axis -2.33008e-014 -90 -90   XYZ
    dof rx
    limits (0.0 90.0)
  end
  begin
     id 30
     name rthumb
     direction -0.707107 -6.34861e-011 0.707107   
     length 0.821855   
     axis -90 -45 -5.69224e-014   XYZ
    dof rx rz
    limits (-45.0 45.0)
           (-45.0 45.0)
  end
:hierarchy
  begin
    root lhipjoint rhipjoint lowerback
    lhipjoint lfemur
    lfemur ltibia
    ltibia lfoot
    lfoot ltoes
    rhipjoint rfemur
    rfemur rtibia
    rtibia rfoot
    rfoot rtoes
    lowerback upperback
    upperback thorax
    thorax lowerneck lclavicle rclavicle
    lowerneck upperneck
    upperneck head
    lclavicle lhumerus
    lhumerus lradius
    lradius lwrist
    lwrist lhand lthumb
    lhand lfingers
    rclavicle rhumerus
    rhumerus rradius
    rradius rwrist
    rwrist rhand rthumb
    rhand rfingers
  end

#!OML:ASF F:\VICON\USERDATA\INSTALL\Justin1\Justin1.ASF
:FULLY-SPECIFIED
:DEGREES
1674
root 0.0827019 18.1776 -3.73591 3.73603 3.40916 -3.36097
lowerback 2.88819 -0.793354 3.24958
upperback -1.13452 -0.828012 3.70517
thorax -2.78144 -0.435663 2.03755
lowerneck -14.7461 -3.16222 -4.70287
upperneck 18.1139 -2.77973 -2.25903
head 8.09723 -1.87015 -0.291091
rclavicle 2.6339e-015 -7.95139e-015
rhumerus -36.3347 -14.3853 -75.2701
rradius 30.2031
rwrist -2.52523
rhand -20.5078 12.6334
rfingers 7.12502
rthumb 5.84955 -17.2659
lclavicle 2.6339e-015 -7.95139e-015
lhumerus -39.5957 18.9296 80.3185
lradius 33.786
lwrist -11.8125
lhand -8.75438 30.3901
lfingers 7.12502
lthumb 17.1829 59.6504
rfemur -15.5559 7.2966 27.6485
rtibia 33.7072
rfoot -18.504 -13.1692
rtoes 27.7215
lfemur -14.1212 -9.66578 -18.6207
ltibia 30.5527
lfoot -17.9205 8.83721
ltoes 5.13236
1675
root 0.0883876 18.177 -3.73913 3.61907 3.33215 -3.38023
lowerback 3.10698 -0.807084 3.32982
upperback -1.15298 -0.828765 3.71369
thorax -2.92506 -0.438329 2.0059
lowerneck -14.6717 -3.12309 -4.74475
upperneck 18.1694 -2.72136 -2.25038
head 8.1029 -1.84534 -0.274154
rclavicle -2.08724e-015 1.27222e-014
rhumerus -36.2102 -13.9932 -75.4881
rradius 30.5699
rwrist -3.01179
rhand -21.0111 12.4811
rfingers 7.12502
rthumb 5.36364 -17.4311
lclavicle -2.08724e-015 1.27222e-014
lhumerus -39.5943 18.8645 80.4198
lradius 34.0882
lwrist -11.6334
lhand -8.73254 30.3845
lfingers 7.12502
lthumb 17.2039 59.6429
rfemur -15.4364 7.24529 27.6419
rtibia 33.6575
rfoot -18.3931 -13.0709
rtoes 27.5368
lfemur -14.0055 -9.70277 -18.6551
ltibia 30.5905
lfoot -17.9185 8.96235
ltoes 4.93214
1676
root 0.0906985 18.1744 -3.74224 3.59695 3.2954 -3.45839
lowerback 3.1781 -0.817771 3.4385
upperback -1.16292 -0.832807 3.73577
thorax -2.97688 -0.442498 1.96974
lowerneck -14.6946 -3.09911 -4.69235
upperneck 18.2326 -2.68314 -2.32118
head 8.12593 -1.83207 -0.302987
rclavicle -9.79014e-015 -2.94201e-014
rhumerus -36.011 -13.7031 -75.671
rradius 30.8336
rwrist -3.44622
rhand -21.25 12.6029
rfingers 7.12502
rthumb 5.13297 -17.315
lclavicle -9.79014e-015 -2.94201e-014
lhumerus -39.2759 18.6641 80.5877
lradius 33.9063
lwrist -11.4423
lhand -9.08919 29.975
lfingers 7.12502
lthumb 16.8606 59.263
rfemur -15.4276 7.22859 27.7036
rtibia 33.6233
rfoot -18.358 -12.9658
rtoes 27.8323
lfemur -14.0087 -9.66562 -18.5862
ltibia 30.6226
lfoot -17.8716 9.022
ltoes 4.74607
1677
root 0.0891754 18.1745 -3.74423 3.6056 3.28462 -3.52216
lowerback 3.33092 -0.83553 3.43603
upperback -1.27579 -0.839534 3.7971
thorax -3.17906 -0.44692 2.03999
lowerneck -14.6229 -3.06031 -4.67745
upperneck 18.3143 -2.61907 -2.40288
head 8.13873 -1.81028 -0.325069
rclavicle -3.97569e-016 1.59028e-015
rhumerus -35.9111 -13.4529 -75.7186
rradius 30.9794
rwrist -3.64026
rhand -21.4045 12.9387
rfingers 7.12502
rthumb 4.98377 -16.9827
lclavicle -3.97569e-016 1.59028e-015
lhumerus -39.0056 18.0982 80.9037
lradius 33.501
lwrist -10.9847
lhand -9.52235 29.9101
lfingers 7.12502
lthumb 16.4436 59.2332
rfemur -15.4241 7.25438 27.7871
rtibia 33.6048
rfoot -18.3333 -12.9566
rtoes 28.2106
lfemur -14.0413 -9.59271 -18.5103
ltibia 30.6383
lfoot -17.8379 9.00465
ltoes 4.49667
1678
root 0.0888011 18.177 -3.74342 3.61414 3.2647 -3.48065
lowerback 3.35272 -0.836709 3.37962
upperback -1.30124 -0.841146 3.79604
thorax -3.2168 -0.446938 2.07143
lowerneck -14.5828 -3.04195 -4.6734
upperneck 18.3273 -2.59324 -2.42124
head 8.13539 -1.79972 -0.328382
rclavicle -8.59744e-015 -5.56597e-015
rhumerus -35.7285 -13.3873 -75.7948
rradius 31.1691
rwrist -3.76513
rhand -21.625 13.2463
rfingers 7.12502
rthumb 4.77089 -16.68
lclavicle -8.59744e-015 -5.56597e-015
lhumerus -38.7767 17.6262 81.1505
lradius 33.4209
lwrist -10.6718
lhand -9.49877 29.9799
lfingers 7.12502
lthumb 16.4663 59.3011
rfemur -15.4148 7.23124 27.7468
rtibia 33.6016
rfoot -18.3085 -12.9377
rtoes 28.2304
lfemur -14.0526 -9.62109 -18.5483
ltibia 30.6481
lfoot -17.8895 8.92762
ltoes 5.20374
1679
root 0.0893448 18.1765 -3.74119 3.59032 3.21859 -3.4408
lowerback 3.34743 -0.837261 3.35455
upperback -1.2742 -0.84552 3.77313
thorax -3.18564 -0.448591 2.06138
lowerneck -14.5782 -3.02379 -4.60853
upperneck 18.2927 -2.57513 -2.46752
head 8.12098 -1.79062 -0.351771
rclavicle -1.53561e-014 1.43125e-014
rhumerus -35.5033 -13.211 -75.9785
rradius 31.4712
rwrist -4.04235
rhand -21.7557 13.1469
rfingers 7.12502
rthumb 4.64467 -16.7822
lclavicle -1.53561e-014 1.43125e-014
lhumerus -38.5579 17.4135 81.2952
lradius 33.5386
lwrist -10.5171
lhand -9.46405 30.0326
lfingers 7.12502
lthumb 16.4997 59.3511
rfemur -15.3994 7.25955 27.6948
rtibia 33.6137
rfoot -18.3498 -12.9268
rtoes 27.9674
lfemur -13.9968 -9.63781 -18.5987
ltibia 30.6391
lfoot -17.8991 8.89625
ltoes 5.70633
1680
root 0.0905341 18.1748 -3.74235 3.60094 3.18912 -3.43662
lowerback 3.37188 -0.844592 3.38004
upperback -1.27919 -0.852603 3.76576
thorax -3.20505 -0.452852 2.04049
lowerneck -14.5736 -3.00703 -4.54407
upperneck 18.2748 -2.54987 -2.55528
head 8.11176 -1.78268 -0.388293
rclavicle 2.43511e-015 5.56597e-015
rhumerus -35.2811 -13.0684 -76.0979
rradius 31.6801
rwrist -4.24859
rhand -21.773 13.1774
rfingers 7.12502
rthumb 4.62792 -16.752
lclavicle 2.43511e-015 5.56597e-015
lhumerus -38.3312 17.2089 81.4729
lradius 33.5982
lwrist -10.331
lhand -9.60919 30.1702
lfingers 7.12502
lthumb 16.36 59.5002
rfemur -15.4455 7.29454 27.6802
rtibia 33.6358
rfoot -18.3759 -12.9541
rtoes 27.8111
lfemur -13.9858 -9.65557 -18.6082
ltibia 30.6061
lfoot -17.8704 8.93026
ltoes 5.55663
1681
root 0.0921945 18.1746 -3.74352 3.60991 3.14992 -3.37007
lowerback 3.40352 -0.862892 3.35904
upperback -1.28273 -0.876609 3.74437
thorax -3.22627 -0.464775 2.03225
lowerneck -14.6113 -2.98031 -4.52279
upperneck 18.2874 -2.50739 -2.59407
head 8.12157 -1.76546 -0.400623
rclavicle 2.93207e-015 -3.26007e-014
rhumerus -35.0802 -12.8912 -76.2233
rradius 31.9165
rwrist -4.40274
rhand -21.7238 13.3571
rfingers 7.12502
rthumb 4.67547 -16.5713
lclavicle 2.93207e-015 -3.26007e-014
lhumerus -38.1755 17.21 81.5443
lradius 33.6097
lwrist -10.3653
lhand -9.7088 30.0479
lfingers 7.12502
lthumb 16.2641 59.3858
rfemur -15.4718 7.22754 27.6019
rtibia 33.6596
rfoot -18.3199 -12.9272
rtoes 27.5543
lfemur -13.9796 -9.61962 -18.6953
ltibia 30.5889
lfoot -17.8343 8.98751
ltoes 5.4825
1682
root 0.0937752 18.1749 -3.74126 3.63405 3.08279 -3.27015
lowerback 3.35509 -0.872255 3.2827
upperback -1.28135 -0.896668 3.71505
thorax -3.19637 -0.473397 2.0448
lowerneck -14.5958 -2.95048 -4.51737
upperneck 18.284 -2.46339 -2.61999
head 8.11696 -1.74676 -0.404844
rclavicle 1.9133e-014 -2.46493e-014
rhumerus -34.9388 -12.6056 -76.4074
rradius 32.3053
rwrist -4.70835
rhand -21.878 13.304
rfingers 7.12502
rthumb 4.52657 -16.6276
lclavicle 1.9133e-014 -2.46493e-014
lhumerus -38.1297 17.1645 81.5976
lradius 33.7217
lwrist -10.4456
lhand -9.67104 30.0051
lfingers 7.12502
lthumb 16.3004 59.34
rfemur -15.4888 7.21488 27.4729
rtibia 33.6898
rfoot -18.3535 -12.8116
rtoes 27.7228
lfemur -13.9665 -9.54855 -18.8251
ltibia 30.5797
lfoot -17.8306 9.02674
ltoes 5.32767
1683
root 0.0934661 18.1743 -3.74116 3.66271 2.97463 -3.26513
lowerback 3.3257 -0.864182 3.27857
upperback -1.30697 -0.887299 3.69304
thorax -3.20663 -0.469067 2.0236
lowerneck -14.5317 -2.92123 -4.46555
upperneck 18.3137 -2.43422 -2.64139
head 8.11396 -1.73182 -0.416386
rclavicle 5.66536e-015 7.15625e-015
rhumerus -34.8756 -12.4347 -76.56
rradius 32.6495
rwrist -4.92938
rhand -22.1065 13.4944
rfingers 7.12502
rthumb 4.30595 -16.4418
lclavicle 5.66536e-015 7.15625e-015
lhumerus -38.0787 16.9695 81.6585
lradius 33.807
lwrist -10.3334
lhand -9.78156 30.154
lfingers 7.12502
lthumb 16.194 59.4976
rfemur -15.5318 7.28372 27.4586
rtibia 33.7181
rfoot -18.3375 -12.7524
rtoes 27.7337
lfemur -13.9837 -9.48665 -18.8377
ltibia 30.5659
lfoot -17.7809 9.08804
ltoes 5.02262
1684
root 0.0939086 18.1733 -3.74257 3.69338 2.89882 -3.33509
lowerback 3.33784 -0.863826 3.39597
upperback -1.35305 -0.879269 3.66123
thorax -3.26371 -0.468352 1.92558
lowerneck -14.4408 -2.88113 -4.32794
upperneck 18.2951 -2.41173 -2.66929
head 8.08828 -1.71364 -0.443779
rclavicle -1.86858e-014 1.82882e-014
rhumerus -34.7818 -12.3226 -76.7307
rradius 32.8767
rwrist -5.18712
rhand -22.1189 13.674
rfingers 7.12502
rthumb 4.29393 -16.2625
lclavicle -1.86858e-014 1.82882e-014
lhumerus -37.9797 16.6816 81.7298
lradius 33.8549
lwrist -10.1225
lhand -9.90979 30.2578
lfingers 7.12502
lthumb 16.0705 59.6114
rfemur -15.5914 7.3204 27.5273
rtibia 33.7267
rfoot -18.2781 -12.7365
rtoes 27.4482
lfemur -14.0218 -9.48964 -18.7553
ltibia 30.5586
lfoot -17.7646 9.13525
ltoes 5.1674
1685
root 0.0951176 18.1742 -3.74042 3.68022 2.88936 -3.30192
lowerback 3.36178 -0.883574 3.40925
upperback -1.3577 -0.904179 3.63368
thorax -3.28246 -0.481482 1.89174
lowerneck -14.3929 -2.84208 -4.26557
upperneck 18.2027 -2.37676 -2.67529
head 8.04723 -1.69135 -0.450092
rclavicle -1.00386e-014 3.18055e-015
rhumerus -34.598 -12.0898 -76.9042
rradius 33.0973
rwrist -5.52197
rhand -22.2811 13.5534
rfingers 7.12502
rthumb 4.13736 -16.3862
lclavicle -1.00386e-014 3.18055e-015
lhumerus -37.8302 16.5551 81.8146
lradius 33.9089
lwrist -10.1625
lhand -9.68112 30.4677
lfingers 7.12502
lthumb 16.2907 59.8034
rfemur -15.5694 7.28307 27.4862
rtibia 33.7164
rfoot -18.2457 -12.6809
rtoes 27.6975
lfemur -14 -9.50848 -18.7939
ltibia 30.5765
lfoot -17.7972 9.14771
ltoes 5.15763
1686
root 0.0951657 18.1747 -3.73712 3.66003 2.87924 -3.26916
lowerback 3.37514 -0.924233 3.36589
upperback -1.37623 -0.958686 3.63763
thorax -3.30795 -0.507932 1.9241
lowerneck -14.3564 -2.78189 -4.20872
upperneck 18.2104 -2.30192 -2.71092
head 8.04137 -1.65554 -0.462306
rclavicle -4.32357e-015 1.43125e-014
rhumerus -34.4916 -11.8686 -77.0365
rradius 33.3747
rwrist -5.68506
rhand -22.3944 13.3918
rfingers 7.12502
rthumb 4.02794 -16.5499
lclavicle -4.32357e-015 1.43125e-014
lhumerus -37.7805 16.6008 81.8233
lradius 33.9106
lwrist -10.2975
lhand -9.46691 30.2831
lfingers 7.12502
lthumb 16.497 59.6017
rfemur -15.5045 7.24921 27.4539
rtibia 33.691
rfoot -18.2022 -12.6201
rtoes 27.8252
lfemur -13.9706 -9.51915 -18.8307
ltibia 30.5964
lfoot -17.8533 9.16841
ltoes 4.99794
1687
root 0.0957867 18.1728 -3.73641 3.66934 2.82307 -3.34694
lowerback 3.36697 -0.943965 3.43613
upperback -1.37901 -0.981197 3.66528
thorax -3.30694 -0.52033 1.91478
lowerneck -14.3481 -2.73601 -4.13557
upperneck 18.1814 -2.2467 -2.7619
head 8.02807 -1.62885 -0.484497
rclavicle 9.39258e-015 -1.11319e-014
rhumerus -34.3446 -11.6802 -77.1757
rradius 33.6166
rwrist -5.84258
rhand -22.5304 13.478
rfingers 7.12502
rthumb 3.89658 -16.4661
lclavicle 9.39258e-015 -1.11319e-014
lhumerus -37.7635 16.4909 81.8899
lradius 34.0152
lwrist -10.2109
lhand -9.28105 30.2734
lfingers 7.12502
lthumb 16.6759 59.5771
rfemur -15.4884 7.27894 27.5361
rtibia 33.6711
rfoot -18.2014 -12.6106
rtoes 27.6568
lfemur -13.9831 -9.46084 -18.7386
ltibia 30.6021
lfoot -17.8902 9.09869
ltoes 5.34934
